<?xml version="1.0" encoding="UTF-8" standalone="no"?>
<!-- Created with Inkscape (http://www.inkscape.org/) -->

<svg
   version="1.1"
   id="svg1"
   width="315.43353"
   height="296.91489"
   viewBox="0 0 315.43353 296.91489"
   sodipodi:docname="user.jpg"
   xmlns:inkscape="http://www.inkscape.org/namespaces/inkscape"
   xmlns:sodipodi="http://sodipodi.sourceforge.net/DTD/sodipodi-0.dtd"
   xmlns="http://www.w3.org/2000/svg"
   xmlns:svg="http://www.w3.org/2000/svg">
  <defs
     id="defs1">
    <inkscape:path-effect
       effect="bspline"
       id="path-effect3"
       is_visible="true"
       lpeversion="1.3"
       weight="33.333333"
       steps="2"
       helper_size="0"
       apply_no_weight="true"
       apply_with_weight="true"
       only_selected="false"
       uniform="false" />
  </defs>
  <sodipodi:namedview
     id="namedview1"
     pagecolor="#ffffff"
     bordercolor="#000000"
     borderopacity="0.25"
     inkscape:showpageshadow="2"
     inkscape:pageopacity="0.0"
     inkscape:pagecheckerboard="0"
     inkscape:deskcolor="#d1d1d1" />
  <g
     inkscape:groupmode="layer"
     inkscape:label="Image"
     id="g1"
     transform="translate(-101.85233,-119.75365)">
    <g
       id="g5"
       transform="matrix(0.6224117,0,0,0.59236452,100.31549,117.19403)">
      <ellipse
         style="fill:#ff2a2a;stroke-width:0.972714;paint-order:stroke fill markers"
         id="path4"
         cx="255.86537"
         cy="254.93944"
         rx="253.39621"
         ry="250.61841" />
      <ellipse
         style="fill:#ffffff;stroke-width:0.997312;paint-order:stroke fill markers"
         id="path1"
         cx="253.70486"
         cy="169.13657"
         rx="96.29673"
         ry="93.827583" />
      <path
         style="fill:#ffffff;paint-order:stroke fill markers"
         d="m 103.17476,385.27309 c -1.40039,-1.78233 -1.87325,-2.40068 -2.528,-3.31004 -0.654738,-0.90937 -1.491319,-2.10968 -2.109679,-3.21909 -0.61836,-1.10942 -1.018469,-2.12788 -1.436772,-3.71017 -0.418304,-1.58228 -0.854785,-3.72831 -0.909343,-5.98352 -0.05456,-2.2552 0.272803,-4.61947 1.054857,-8.09323 0.782053,-3.47376 2.018742,-8.05678 3.728337,-13.04007 1.7096,-4.98329 3.89199,-10.36653 6.0017,-15.02244 2.10971,-4.6559 4.14662,-8.58421 6.4382,-12.63995 2.29159,-4.05574 4.83772,-8.23867 8.25691,-13.0219 3.4192,-4.78323 7.71124,-10.16647 11.53054,-14.6405 3.8193,-4.47404 7.16564,-8.03861 10.74852,-11.27592 3.58287,-3.23732 7.40206,-6.14718 9.93007,-8.03863 2.528,-1.89146 3.76469,-2.76442 5.18329,-3.4919 1.4186,-0.72749 3.01902,-1.30946 4.61949,-1.80051 1.60047,-0.49105 3.20089,-0.89116 4.83774,-1.16396 1.63684,-0.27281 3.31001,-0.4183 5.07417,-0.16368 1.76416,0.25462 3.61919,0.90934 5.18328,1.58227 1.5641,0.67292 2.83716,1.36401 4.12845,2.237 1.29129,0.87299 2.60073,1.92781 4.12845,3.09179 1.52772,1.16398 3.27364,2.43704 5.07417,3.58283 1.80053,1.14579 3.65557,2.16425 6.0199,3.40098 2.36434,1.23672 5.23783,2.69165 7.18384,3.61919 1.94602,0.92754 2.96447,1.32765 4.61951,1.89145 1.65504,0.56381 3.94655,1.29127 6.96563,2.21882 3.01908,0.92755 6.76552,2.05512 11.18501,3.01903 4.41949,0.96392 9.51174,1.76413 14.85877,2.29156 5.34703,0.52743 10.94851,0.78204 15.74992,0.74566 4.8014,-0.0364 8.80245,-0.36373 13.76756,-1.09123 4.96511,-0.72749 10.89395,-1.85506 16.3501,-3.25547 5.45614,-1.40042 10.43927,-3.07359 15.07699,-5.03781 4.63773,-1.96421 8.92977,-4.21935 12.91275,-6.5655 3.98299,-2.34614 7.65669,-4.78315 10.31201,-6.47455 2.65531,-1.69139 4.29211,-2.6371 6.03808,-3.38277 1.74597,-0.74567 3.601,-1.29127 5.60159,-1.5277 2.00059,-0.23643 4.14661,-0.16369 5.83801,0.0364 1.69141,0.20006 2.9281,0.52742 4.74682,1.23673 1.81872,0.7093 4.21936,1.8005 6.62006,3.34641 2.40071,1.54591 4.80134,3.54644 7.91136,6.36546 3.11001,2.81902 6.9292,6.45634 11.0395,10.87583 4.1103,4.41949 8.51147,9.62087 12.31258,14.54959 3.80112,4.92872 7.00196,9.58449 9.56634,13.85847 2.56439,4.27398 4.49217,8.16592 6.32907,12.07616 1.8369,3.91024 3.58282,7.83855 4.72861,10.53024 1.14578,2.69169 1.69138,4.14662 2.63712,6.91108 0.94573,2.76446 2.29154,6.83827 3.21908,10.23926 0.92754,3.40099 1.43677,6.12899 1.63682,8.78432 0.20006,2.65532 0.0909,5.23782 -0.32737,7.63853 -0.41831,2.4007 -1.14577,4.61946 -2.65531,7.11111 -1.50954,2.49164 -3.80106,5.25601 -6.65645,8.51152 -2.85539,3.2555 -6.27448,7.00195 -11.02134,11.38506 -4.74686,4.38312 -10.8212,9.40262 -16.67746,13.80391 -5.85627,4.40129 -11.49412,8.18411 -16.71383,11.45779 -5.21971,3.27369 -10.02098,6.03805 -14.62233,8.52969 -4.60135,2.49163 -9.00252,4.71041 -14.7133,7.02018 -5.71078,2.30977 -12.73082,4.71041 -20.40581,6.89286 -7.67499,2.18246 -16.00446,4.14662 -24.53425,5.51065 -8.52978,1.36403 -17.25936,2.12787 -24.64334,2.45523 -7.38397,0.32736 -13.42193,0.21824 -18.76895,-0.0727 -5.34702,-0.291 -10.0028,-0.76385 -14.6769,-1.45496 -4.6741,-0.69112 -9.36625,-1.60045 -13.8221,-2.56437 -4.45585,-0.96392 -8.67515,-1.98237 -13.62207,-3.38278 -4.94691,-1.40042 -10.62114,-3.18271 -15.96817,-5.07417 -5.34702,-1.89147 -10.36652,-3.892 -16.95029,-7.1657 -6.58377,-3.27371 -14.73138,-7.82036 -22.09717,-12.63997 -7.3658,-4.8196 -13.94936,-9.91185 -20.02387,-15.09519 -6.0745,-5.18335 -11.63961,-10.45747 -15.58621,-14.56775 -3.9466,-4.11029 -6.27449,-7.05653 -7.67489,-8.83885 z"
         id="path3"
         inkscape:path-effect="#path-effect3"
         inkscape:original-d="m 102.24723,384.10912 c -0.47286,-0.61836 -0.94572,-1.23671 -1.41859,-1.85507 -0.836613,-1.20037 -1.673198,-2.40068 -2.509799,-3.60102 -0.400122,-1.01849 -0.800228,-2.03695 -1.200341,-3.05542 -0.436497,-2.1461 -0.872976,-4.29213 -1.309463,-6.43819 0.327372,-2.36435 0.654731,-4.72862 0.982097,-7.09292 1.23674,-4.58322 2.47343,-9.16624 3.710146,-13.74936 2.18248,-5.38346 4.36488,-10.7667 6.54731,-16.15005 2.03699,-3.92846 4.07389,-7.85677 6.11083,-11.78516 2.54623,-4.18309 5.09236,-8.36602 7.63853,-12.54902 4.29222,-5.38346 8.58426,-10.7667 12.87639,-16.15005 3.34647,-3.56472 6.69281,-7.12929 10.03922,-10.69394 3.81934,-2.90998 7.63853,-5.81984 11.4578,-8.72976 1.23674,-0.87299 2.47343,-1.74595 3.71014,-2.61892 1.60049,-0.582 3.20091,-1.16397 4.80136,-1.74595 1.60049,-0.40012 3.20091,-0.80023 4.80137,-1.20034 1.67323,-0.1455 3.3464,-0.29099 5.01961,-0.43649 1.85511,0.65474 3.71014,1.30946 5.56521,1.96419 1.27312,0.69112 2.54618,1.38222 3.81927,2.07332 1.30949,1.05487 2.61893,2.10969 3.92839,3.16454 1.74598,1.27311 3.4919,2.54617 5.23785,3.81926 1.85511,1.01849 3.71015,2.03694 5.56522,3.05542 2.8736,1.45498 5.74709,2.90991 8.62063,4.36487 1.01849,0.40012 2.03694,0.80023 3.05541,1.20034 2.29161,0.7275 4.58312,1.45496 6.87468,2.18244 3.7466,1.12762 7.49304,2.25519 11.23956,3.38278 5.09246,0.80024 10.18471,1.60046 15.27707,2.40068 5.6017,0.25463 11.20318,0.50924 16.80477,0.76386 4.00122,-0.32738 8.00227,-0.65474 12.00341,-0.9821 5.92908,-1.12762 11.85792,-2.25519 17.78687,-3.38278 4.98334,-1.67324 9.96647,-3.34641 14.9497,-5.01961 4.29222,-2.25523 8.58426,-4.51037 12.87639,-6.76556 3.67384,-2.4371 7.34754,-4.87411 11.02131,-7.31116 1.63686,-0.94575 3.27366,-1.89145 4.91049,-2.83717 1.85511,-0.54562 3.71014,-1.09122 5.56522,-1.63683 2.1461,0.0728 4.29212,0.14549 6.43819,0.21824 1.23674,0.32737 2.47343,0.65473 3.71014,0.9821 2.40073,1.09124 4.80137,2.18244 7.20205,3.27366 2.40073,2.0006 4.80136,4.00113 7.20205,6.0017 3.81934,3.63747 7.63853,7.27479 11.4578,10.91219 4.40133,5.20158 8.8025,10.40296 13.20375,15.60443 3.20097,4.65597 6.40182,9.31174 9.60273,13.96761 1.92785,3.89209 3.85564,7.78403 5.78346,11.67604 1.74598,3.92847 3.4919,7.85678 5.23785,11.78517 0.54562,1.45499 1.09122,2.90992 1.63683,4.36488 1.34586,4.07396 2.69167,8.14777 4.03751,12.22165 0.50924,2.7281 1.01847,5.4561 1.5277,8.18414 -0.10912,2.58261 -0.21824,5.16511 -0.32736,7.74766 -0.7275,2.21886 -1.45496,4.43762 -2.18244,6.65644 -2.29161,2.76447 -4.58312,5.52884 -6.87468,8.29326 -3.41922,3.74659 -6.83831,7.49304 -10.25746,11.23956 -6.07457,5.01971 -12.14891,10.03921 -18.22336,15.05882 -5.63808,3.78297 -11.27593,7.56579 -16.91389,11.34868 -4.80146,2.76448 -9.60273,5.52884 -14.4041,8.29326 -4.40133,2.21886 -8.8025,4.43763 -13.20375,6.65644 -7.02031,2.40073 -14.04035,4.80137 -21.06053,7.20205 -8.3298,1.96423 -16.65927,3.92839 -24.98891,5.89258 -8.72993,0.76387 -17.45951,1.52771 -26.18926,2.29156 -6.0382,-0.10912 -12.07616,-0.21824 -18.11424,-0.32737 -4.65596,-0.47287 -9.31174,-0.94572 -13.9676,-1.41858 -4.69234,-0.90937 -9.38449,-1.8187 -14.07673,-2.72805 -4.21946,-1.01849 -8.43876,-2.03694 -12.65814,-3.05541 -5.67445,-1.78236 -11.34868,-3.56465 -17.02302,-5.34697 -5.01971,-2.00061 -10.03921,-4.00114 -15.05882,-6.00171 -8.14793,-4.54684 -16.29554,-9.09349 -24.44331,-13.64024 -6.58382,-5.09246 -13.16738,-10.18471 -19.75107,-15.27707 -5.56532,-5.27433 -11.13043,-10.54845 -16.69565,-15.82267 -2.32798,-2.94635 -4.65587,-5.89259 -6.9838,-8.83888 z" />
    </g>
  </g>
</svg>
